<svg width="2500" height="2500" viewBox="0 0 2500 2500" fill="none" xmlns="http://www.w3.org/2000/svg">
<mask id="mask0_7207_4554" style="mask-type:luminance" maskUnits="userSpaceOnUse" x="192" y="202" width="2111" height="2111">
<path d="M192.747 202.597H2302.25V2312.1H192.747V202.597Z" fill="white"/>
</mask>
<g mask="url(#mask0_7207_4554)">
<mask id="mask1_7207_4554" style="mask-type:luminance" maskUnits="userSpaceOnUse" x="192" y="202" width="2111" height="2111">
<path d="M1247.5 202.597C664.975 202.597 192.747 674.824 192.747 1257.35C192.747 1839.87 664.975 2312.1 1247.5 2312.1C1830.02 2312.1 2302.25 1839.87 2302.25 1257.35C2302.25 674.824 1830.02 202.597 1247.5 202.597Z" fill="white"/>
</mask>
<g mask="url(#mask1_7207_4554)">
<path d="M192.747 202.597H2302.25V2312.1H192.747V202.597Z" fill="white"/>
</g>
</g>
<mask id="mask2_7207_4554" style="mask-type:luminance" maskUnits="userSpaceOnUse" x="347" y="357" width="1607" height="1606">
<path d="M347.619 357.193H1953.3V1962.88H347.619V357.193Z" fill="white"/>
</mask>
<g mask="url(#mask2_7207_4554)">
<path d="M1953.07 1159.92C1953.07 1173.06 1952.75 1186.19 1952.1 1199.31C1951.46 1212.43 1950.49 1225.53 1949.2 1238.6C1947.92 1251.67 1946.31 1264.71 1944.38 1277.7C1942.45 1290.7 1940.21 1303.64 1937.65 1316.52C1935.08 1329.41 1932.2 1342.22 1929.01 1354.97C1925.82 1367.71 1922.32 1380.37 1918.5 1392.94C1914.69 1405.51 1910.57 1417.98 1906.14 1430.35C1901.72 1442.72 1896.99 1454.97 1891.96 1467.11C1886.94 1479.25 1881.62 1491.25 1876 1503.13C1870.38 1515 1864.48 1526.74 1858.29 1538.32C1852.09 1549.91 1845.62 1561.33 1838.87 1572.6C1832.11 1583.87 1825.09 1594.97 1817.79 1605.89C1810.49 1616.81 1802.92 1627.55 1795.1 1638.1C1787.27 1648.66 1779.19 1659.01 1770.86 1669.16C1762.52 1679.32 1753.95 1689.27 1745.12 1699C1736.3 1708.73 1727.25 1718.24 1717.96 1727.53C1708.67 1736.82 1699.15 1745.88 1689.42 1754.7C1679.69 1763.52 1669.74 1772.1 1659.59 1780.44C1649.43 1788.77 1639.08 1796.85 1628.53 1804.67C1617.97 1812.5 1607.24 1820.06 1596.31 1827.36C1585.39 1834.66 1574.3 1841.69 1563.03 1848.44C1551.76 1855.2 1540.33 1861.67 1528.75 1867.86C1517.16 1874.05 1505.43 1879.96 1493.55 1885.57C1481.68 1891.19 1469.67 1896.51 1457.53 1901.54C1445.4 1906.57 1433.14 1911.3 1420.77 1915.72C1408.4 1920.15 1395.94 1924.27 1383.36 1928.08C1370.79 1931.9 1358.13 1935.4 1345.39 1938.59C1332.65 1941.78 1319.83 1944.66 1306.95 1947.22C1294.06 1949.78 1281.12 1952.03 1268.13 1953.96C1255.13 1955.88 1242.1 1957.49 1229.02 1958.78C1215.95 1960.07 1202.85 1961.03 1189.73 1961.68C1176.61 1962.32 1163.48 1962.65 1150.34 1962.65C1137.21 1962.65 1124.08 1962.32 1110.95 1961.68C1097.83 1961.03 1084.74 1960.07 1071.66 1958.78C1058.59 1957.49 1045.55 1955.88 1032.56 1953.96C1019.57 1952.03 1006.63 1949.78 993.739 1947.22C980.856 1944.66 968.041 1941.78 955.295 1938.59C942.553 1935.4 929.898 1931.9 917.324 1928.08C904.753 1924.27 892.282 1920.15 879.914 1915.72C867.543 1911.3 855.291 1906.57 843.154 1901.54C831.015 1896.51 819.009 1891.19 807.135 1885.57C795.258 1879.96 783.528 1874.05 771.941 1867.86C760.355 1861.67 748.928 1855.2 737.66 1848.44C726.392 1841.69 715.296 1834.66 704.372 1827.36C693.451 1820.06 682.711 1812.5 672.159 1804.67C661.61 1796.85 651.254 1788.77 641.099 1780.44C630.943 1772.1 621 1763.52 611.267 1754.7C601.533 1745.88 592.021 1736.82 582.732 1727.53C573.442 1718.24 564.386 1708.73 555.562 1699C546.741 1689.27 538.163 1679.32 529.829 1669.16C521.493 1659.01 513.415 1648.66 505.588 1638.1C497.763 1627.55 490.201 1616.81 482.902 1605.89C475.603 1594.97 468.575 1583.87 461.822 1572.6C455.07 1561.33 448.595 1549.91 442.402 1538.32C436.209 1526.74 430.306 1515 424.688 1503.13C419.07 1491.25 413.748 1479.25 408.72 1467.11C403.693 1454.97 398.968 1442.72 394.54 1430.35C390.116 1417.98 385.997 1405.51 382.182 1392.94C378.37 1380.37 374.867 1367.71 371.673 1354.97C368.483 1342.22 365.605 1329.41 363.043 1316.52C360.477 1303.64 358.234 1290.7 356.306 1277.7C354.378 1264.71 352.772 1251.67 351.484 1238.6C350.194 1225.53 349.228 1212.43 348.585 1199.31C347.941 1186.19 347.619 1173.06 347.619 1159.92C347.619 1146.78 347.941 1133.65 348.585 1120.53C349.228 1107.41 350.194 1094.31 351.484 1081.24C352.772 1068.16 354.378 1055.13 356.306 1042.14C358.234 1029.14 360.477 1016.2 363.043 1003.32C365.605 990.43 368.483 977.616 371.673 964.873C374.867 952.13 378.37 939.472 382.182 926.901C385.997 914.33 390.116 901.859 394.54 889.488C398.968 877.121 403.693 864.868 408.72 852.729C413.748 840.592 419.07 828.587 424.688 816.71C430.306 804.836 436.209 793.102 442.402 781.519C448.595 769.932 455.07 758.505 461.822 747.237C468.575 735.969 475.603 724.873 482.902 713.949C490.201 703.025 497.763 692.288 505.588 681.736C513.415 671.184 521.493 660.832 529.829 650.676C538.163 640.521 546.741 630.578 555.562 620.841C564.386 611.107 573.442 601.596 582.732 592.306C592.021 583.019 601.533 573.96 611.267 565.139C621 556.318 630.943 547.738 641.099 539.404C651.254 531.07 661.61 522.989 672.159 515.165C682.711 507.338 693.451 499.776 704.372 492.476C715.296 485.18 726.392 478.152 737.66 471.4C748.928 464.644 760.355 458.173 771.941 451.98C783.528 445.786 795.258 439.88 807.135 434.265C819.009 428.647 831.018 423.326 843.154 418.298C855.291 413.27 867.543 408.546 879.914 404.118C892.282 399.693 904.753 395.572 917.324 391.759C929.898 387.947 942.553 384.444 955.295 381.251C968.041 378.057 980.856 375.183 993.739 372.617C1006.63 370.055 1019.57 367.811 1032.56 365.883C1045.55 363.955 1058.59 362.346 1071.66 361.059C1084.74 359.771 1097.83 358.806 1110.95 358.162C1124.08 357.515 1137.21 357.193 1150.34 357.193C1163.48 357.193 1176.61 357.515 1189.73 358.162C1202.85 358.806 1215.95 359.771 1229.02 361.059C1242.1 362.346 1255.13 363.955 1268.13 365.883C1281.12 367.811 1294.06 370.055 1306.95 372.617C1319.83 375.183 1332.65 378.057 1345.39 381.251C1358.13 384.444 1370.79 387.947 1383.36 391.759C1395.94 395.572 1408.4 399.693 1420.77 404.118C1433.14 408.546 1445.4 413.27 1457.53 418.298C1469.67 423.326 1481.68 428.647 1493.55 434.265C1505.43 439.88 1517.16 445.786 1528.75 451.98C1540.33 458.173 1551.76 464.644 1563.03 471.4C1574.3 478.152 1585.39 485.18 1596.31 492.476C1607.24 499.776 1617.97 507.338 1628.53 515.165C1639.08 522.989 1649.43 531.07 1659.59 539.404C1669.74 547.738 1679.69 556.318 1689.42 565.139C1699.15 573.96 1708.67 583.019 1717.96 592.306C1727.25 601.596 1736.3 611.107 1745.12 620.841C1753.95 630.578 1762.52 640.521 1770.86 650.676C1779.19 660.832 1787.27 671.184 1795.1 681.736C1802.92 692.288 1810.49 703.025 1817.79 713.949C1825.09 724.873 1832.11 735.969 1838.87 747.237C1845.62 758.505 1852.09 769.932 1858.29 781.519C1864.48 793.102 1870.38 804.836 1876 816.71C1881.62 828.587 1886.94 840.592 1891.96 852.729C1896.99 864.868 1901.72 877.121 1906.14 889.488C1910.57 901.859 1914.69 914.33 1918.51 926.901C1922.32 939.472 1925.82 952.13 1929.01 964.873C1932.2 977.616 1935.08 990.43 1937.65 1003.32C1940.21 1016.2 1942.45 1029.14 1944.38 1042.14C1946.31 1055.13 1947.92 1068.16 1949.2 1081.24C1950.49 1094.31 1951.46 1107.41 1952.1 1120.53C1952.75 1133.65 1953.07 1146.78 1953.07 1159.92Z" fill="#934DCA"/>
</g>
<mask id="mask3_7207_4554" style="mask-type:luminance" maskUnits="userSpaceOnUse" x="240" y="249" width="2020" height="2021">
<path d="M240.09 249.939H2259.31V2269.16H240.09V249.939Z" fill="white"/>
</mask>
<g mask="url(#mask3_7207_4554)">
<mask id="mask4_7207_4554" style="mask-type:luminance" maskUnits="userSpaceOnUse" x="240" y="249" width="2020" height="2021">
<path d="M1249.7 249.939C692.107 249.939 240.09 701.956 240.09 1259.55C240.09 1817.14 692.107 2269.16 1249.7 2269.16C1807.29 2269.16 2259.31 1817.14 2259.31 1259.55C2259.31 701.956 1807.29 249.939 1249.7 249.939Z" fill="white"/>
</mask>
<g mask="url(#mask4_7207_4554)">
<path d="M240.09 249.939H2259.31V2269.16H240.09V249.939Z" fill="#934DCA"/>
</g>
</g>
<path d="M851.144 697C1129.04 697 1354.29 923.784 1354.29 1203.51C1354.29 1483.24 1129.02 1710 851.144 1710C573.286 1710 348 1483.24 348 1203.51C348 923.791 573.265 697 851.144 697ZM1654.64 726.667C1793.58 726.667 1906.22 940.137 1906.22 1203.51H1906.24C1906.24 1466.81 1793.6 1680.35 1654.67 1680.35C1515.73 1680.35 1403.09 1466.81 1403.09 1203.51C1403.09 940.206 1515.7 726.667 1654.65 726.667H1654.64ZM2043.52 776.339C2092.38 776.339 2132 967.589 2132 1203.51C2132 1439.36 2092.39 1630.69 2043.52 1630.69C1994.65 1630.69 1955.06 1439.42 1955.06 1203.51C1955.06 967.602 1994.67 776.339 2043.52 776.339Z" fill="white"/>
</svg>
