<svg width="1840" height="1840" viewBox="0 0 1840 1840" fill="none" xmlns="http://www.w3.org/2000/svg">
<mask id="mask0_7116_7215" style="mask-type:luminance" maskUnits="userSpaceOnUse" x="0" y="0" width="1840" height="1840">
<path d="M0 0H1840V1840H0V0Z" fill="white"/>
</mask>
<g mask="url(#mask0_7116_7215)">
<g filter="url(#filter0_i_7116_7215)">
<mask id="mask1_7116_7215" style="mask-type:luminance" maskUnits="userSpaceOnUse" x="0" y="0" width="1840" height="1840">
<path d="M920 0C411.898 0 0 411.898 0 920C0 1428.1 411.898 1840 920 1840C1428.1 1840 1840 1428.1 1840 920C1840 411.898 1428.1 0 920 0Z" fill="white"/>
</mask>
<g mask="url(#mask1_7116_7215)">
<path d="M0 0H1840V1840H0V0Z" fill="#2850F1"/>
<path d="M0 0H1840V1840H0V0Z" fill="#244BE8"/>
</g>
</g>
</g>
<path fill-rule="evenodd" clip-rule="evenodd" d="M1074.2 916.603C1165.15 1038.18 1288.04 1102.81 1437.52 1118.84C1492.18 1124.69 1492.31 1123.48 1492.32 1177.75C1492.32 1232.65 1490.83 1287.59 1492.93 1342.39C1494 1370.45 1483.07 1376.29 1457.93 1374.6C1259.76 1361.17 1086.7 1290.62 943.201 1151.3C935.136 1143.48 929.091 1130.51 913.932 1133.9C904.002 1129.21 898.767 1119.73 891.569 1112.21C881.32 1097.66 870.331 1083.68 858.97 1069.97C825.726 1022.92 792.374 975.917 767.258 923.771C686.287 808.355 571.446 748.782 436.043 723.717C408.669 718.657 371.053 725.986 355.673 710.36C337.55 691.948 350.579 654.292 349.913 625.023C348.992 584.769 351.859 544.314 348.992 504.248C346.701 472.247 356.809 463.197 388.642 465.284C583.56 478.007 752.564 549.526 894.872 683.638C903.582 691.851 912.77 699.57 921.735 707.51C937.845 712.85 948.463 724.836 958.477 737.629C965.89 749.811 975.545 760.298 984.255 771.529C1016.87 818.268 1051.01 864.043 1074.2 916.603Z" fill="white"/>
<path fill-rule="evenodd" clip-rule="evenodd" d="M1089.31 577.551C1203.62 504.006 1330.1 471.491 1464.63 465.271C1484.71 464.35 1493.18 469.77 1492.76 491.774C1491.5 558.703 1491.98 625.668 1492.54 692.624C1492.68 709.127 1487.98 716.264 1470.05 716.849C1399.86 719.114 1333.15 737.787 1268 762.802C1248.14 745.99 1238.01 722.007 1223.21 701.468C1195.28 662.747 1159.2 633.354 1119.79 607.465C1107.65 599.484 1093.05 594.057 1089.31 577.551ZM746.831 1264.26C633.667 1337.43 507.108 1365.32 374.941 1374.63C355.931 1375.96 349.09 1369.37 349.345 1349.92C350.249 1282.99 350.35 1216.04 349.288 1149.13C348.962 1128.72 354.614 1121.09 376.084 1120.92C445.274 1120.35 510.505 1100.9 574.074 1075.05C594.414 1083.97 599.246 1105.32 610.547 1121.31C639.961 1162.93 670.728 1202.82 715.347 1229.85C728.789 1238 742.862 1246.85 746.831 1264.26Z" fill="white"/>
<path fill-rule="evenodd" clip-rule="evenodd" d="M746.83 1264.26C671.198 1217.68 610.678 1157.28 574.073 1075.05L606.797 1059.58C635.887 1095.27 657.3 1136.65 691.569 1168.7C720.74 1195.97 756.851 1213.27 786.439 1239.57C775.844 1251.97 762.006 1259.18 746.83 1264.26ZM1089.31 577.551C1154.7 615.09 1213.72 659.423 1251.82 726.812C1258.39 738.436 1266.64 748.971 1267.99 762.802C1257.22 768.249 1246.44 773.69 1235.67 779.127C1196.86 714.09 1148.2 658.681 1081.92 620.053C1072.18 614.394 1059.81 608.137 1065.73 592.34C1071.68 584.359 1079.39 579.201 1089.31 577.551Z" fill="white"/>
<path fill-rule="evenodd" clip-rule="evenodd" d="M995.146 643.105C1000.3 634.63 1007.83 629.234 1017.16 626.182C1029.28 618.944 1041.95 617.274 1055.15 622.842C1123.48 651.617 1176.74 697.113 1210.43 763.948C1215.11 773.242 1219.86 783.431 1211.57 793.64C1203.51 798.912 1195.44 804.202 1187.4 809.467C1172.52 801.167 1167.41 784.994 1157.66 772.564C1123.67 729.158 1085.98 690.466 1033.56 668.752C1019.5 662.925 1001.67 660.939 995.146 643.105Z" fill="white"/>
<path fill-rule="evenodd" clip-rule="evenodd" d="M1211.56 793.64C1175.24 704.751 1114.88 643.774 1017.15 626.183C1031.52 612.287 1045.83 598.308 1065.73 592.344C1108.34 627.963 1157.18 656.221 1192.68 700.238C1211.83 723.976 1234.9 745.446 1235.67 779.13L1211.56 793.64Z" fill="white"/>
<path fill-rule="evenodd" clip-rule="evenodd" d="M953.534 739.763C940.247 731.655 929.457 721.093 921.738 707.51C929.313 701.126 936.89 694.734 944.465 688.36C1027.27 696.324 1088.6 737.992 1131.49 808.127C1138.38 819.384 1145.38 831.209 1139.79 845.518C1134.34 856.194 1125.26 862.961 1115.06 868.519C1103.37 865.562 1098.77 855.643 1093.8 846.354C1063.34 789.325 1018.4 751.467 953.534 739.763Z" fill="white"/>
<path fill-rule="evenodd" clip-rule="evenodd" d="M841.899 1198.89C836.916 1207.64 829.489 1213.17 819.791 1215.71C810.9 1218.49 802.388 1221.8 792.454 1219.7C723.94 1205.2 643.59 1118.39 631.56 1045.37C637.585 1036.93 646.123 1032.29 655.734 1029.25C669.209 1031.66 675.712 1042.13 681.743 1052.59C714.248 1108.97 759.066 1151.66 819.075 1177.91C828.891 1182.2 838.72 1187.11 841.899 1198.89Z" fill="white"/>
<path fill-rule="evenodd" clip-rule="evenodd" d="M631.563 1045.37C642.192 1063.92 653.07 1082.32 663.406 1101.03C697.85 1163.44 752.07 1198.76 819.795 1215.71C810.87 1226.73 800.15 1235.24 786.443 1239.57C700.313 1205.75 639.934 1146.26 606.804 1059.58C615.057 1054.84 623.31 1050.1 631.563 1045.37Z" fill="white"/>
<path fill-rule="evenodd" clip-rule="evenodd" d="M897.691 1109.64C908.135 1114.36 913.485 1122.49 913.922 1133.92C907.853 1139.22 901.781 1144.53 895.705 1149.84C829.341 1154.21 781.812 1119.03 742.798 1071.95C723.846 1049.09 696.338 1027.08 704.487 990.192C711.483 984.029 718.489 977.859 725.492 971.683C746.172 967.818 749.327 985.914 754.916 997.618C784.131 1058.85 834.617 1092.05 897.691 1109.64Z" fill="white"/>
<path fill-rule="evenodd" clip-rule="evenodd" d="M995.146 643.105C1081.23 673.123 1150.58 722.501 1187.39 809.467C1179.25 815.368 1171.12 821.286 1162.99 827.183C1149.77 823.887 1144.95 812.28 1138.88 802.226C1101.42 740.129 1049.6 697.856 976.98 683.904C970.383 682.637 964.264 680.197 960.191 674.333C969.177 660.939 980.67 650.367 995.146 643.105Z" fill="white"/>
<path fill-rule="evenodd" clip-rule="evenodd" d="M960.191 674.337C1061.76 680.214 1121.11 742.112 1162.99 827.184C1155.25 833.286 1147.52 839.409 1139.79 845.514C1105.63 767.517 1047.33 718.442 964.174 699.503C956.156 697.671 948.568 696.485 944.468 688.36C947.456 681.158 952.51 676.269 960.191 674.337Z" fill="white"/>
<path fill-rule="evenodd" clip-rule="evenodd" d="M704.487 990.192C739.133 1078.25 804.159 1129.93 895.709 1149.84C891.855 1161.88 881.828 1167.85 871.962 1173.97C847.501 1185.75 828.324 1169.95 808.42 1160.89C758.193 1138.06 718.856 1102.92 693.277 1053.47C685.336 1038.13 675.655 1022.59 687.867 1004.83C693.408 999.96 698.942 995.078 704.487 990.192Z" fill="white"/>
<path fill-rule="evenodd" clip-rule="evenodd" d="M687.863 1004.83C704.329 1089.24 765.498 1131.82 837.461 1163.93C848.301 1168.76 860.429 1170.69 871.958 1173.97C864.25 1185.07 853.927 1193 841.9 1198.89C755.992 1168.53 697.38 1108.2 655.738 1029.25L687.863 1004.83Z" fill="white"/>
<path fill-rule="evenodd" clip-rule="evenodd" d="M897.692 1109.64C854.871 1120.46 828.223 1089.66 797.513 1070.12C760.922 1046.84 753.559 1001.57 725.49 971.683C735.564 957.243 745.702 942.844 760.475 932.588C777.152 969.512 782.784 1012.09 819.174 1038.77C834.201 1049.79 847.539 1062.91 865.52 1069.33C882.453 1077.81 889.768 1093.97 897.692 1109.64Z" fill="white"/>
<path fill-rule="evenodd" clip-rule="evenodd" d="M953.535 739.763C991.947 724.819 1017.75 750.473 1044.03 769.936C1077.73 794.89 1099.23 829.996 1115.06 868.519C1109.11 878.849 1102.25 888.305 1091.33 894.008C1076.7 885.086 1072.16 869.09 1065.49 855.118C1046.74 815.909 1010.6 795.616 977.635 771.74C965.155 764.425 954.61 755.664 953.535 739.763Z" fill="white"/>
<path fill-rule="evenodd" clip-rule="evenodd" d="M865.519 1069.33C855.599 1082.91 844.987 1073.05 838.125 1067.58C794.699 1032.96 755.517 995.28 760.477 932.589C762.735 929.652 765 926.721 767.262 923.768C809.176 966.095 833.663 1020.2 865.519 1069.33Z" fill="white"/>
<path fill-rule="evenodd" clip-rule="evenodd" d="M977.635 771.737C1043.68 786.318 1072.39 835.618 1091.33 894.005L1074.2 916.603C1034.55 873.291 1008.61 820.822 977.635 771.737Z" fill="white"/>
<defs>
<filter id="filter0_i_7116_7215" x="0" y="0" width="1840" height="1844" filterUnits="userSpaceOnUse" color-interpolation-filters="sRGB">
<feFlood flood-opacity="0" result="BackgroundImageFix"/>
<feBlend mode="normal" in="SourceGraphic" in2="BackgroundImageFix" result="shape"/>
<feColorMatrix in="SourceAlpha" type="matrix" values="0 0 0 0 0 0 0 0 0 0 0 0 0 0 0 0 0 0 127 0" result="hardAlpha"/>
<feOffset dy="4"/>
<feGaussianBlur stdDeviation="2"/>
<feComposite in2="hardAlpha" operator="arithmetic" k2="-1" k3="1"/>
<feColorMatrix type="matrix" values="0 0 0 0 0 0 0 0 0 0 0 0 0 0 0 0 0 0 0.25 0"/>
<feBlend mode="normal" in2="shape" result="effect1_innerShadow_7116_7215"/>
</filter>
</defs>
</svg>
