<svg width="1840" height="1840" viewBox="0 0 1840 1840" fill="none" xmlns="http://www.w3.org/2000/svg">
<mask id="mask0_7118_7314" style="mask-type:luminance" maskUnits="userSpaceOnUse" x="0" y="0" width="1840" height="1841">
<path d="M0 0H1840V1840H0V0Z" fill="white"/>
</mask>
<g mask="url(#mask0_7118_7314)">
<g filter="url(#filter0_i_7118_7314)">
<mask id="mask1_7118_7314" style="mask-type:luminance" maskUnits="userSpaceOnUse" x="0" y="0" width="1840" height="1841">
<path d="M920 0C411.898 0 0 411.898 0 920C0 1428.1 411.898 1840 920 1840C1428.1 1840 1840 1428.1 1840 920C1840 411.898 1428.1 0 920 0Z" fill="white"/>
</mask>
<g mask="url(#mask1_7118_7314)">
<path d="M0 0H1840V1840H0V0Z" fill="#15192A"/>
</g>
</g>
</g>
<g clip-path="url(#clip0_7118_7314)">
<path d="M617.48 756.102H198.745C196.146 756.102 193.668 757.057 191.84 758.773C190.95 759.594 190.239 760.589 189.75 761.696C189.261 762.804 189.006 763.999 189 765.21V1156.79C189 1159.21 190.021 1161.52 191.849 1163.23C193.677 1164.94 196.155 1165.9 198.735 1165.9H617.48C620.07 1165.9 622.538 1164.94 624.376 1163.23C625.267 1162.41 625.98 1161.42 626.47 1160.31C626.96 1159.2 627.217 1158.01 627.225 1156.79V765.21C627.225 762.798 626.204 760.48 624.376 758.773C622.498 757.043 620.034 756.089 617.48 756.102ZM481.15 1020.19C481.15 1022.61 480.129 1024.92 478.291 1026.63C476.419 1028.36 473.962 1029.31 471.415 1029.3H344.81C342.23 1029.3 339.752 1028.34 337.924 1026.63C337.032 1025.81 336.319 1024.82 335.829 1023.71C335.339 1022.6 335.082 1021.41 335.075 1020.19V901.81C335.075 899.398 336.096 897.08 337.924 895.373C339.752 893.657 342.23 892.702 344.81 892.702H471.415C473.995 892.702 476.473 893.657 478.291 895.373C479.185 896.192 479.9 897.186 480.392 898.294C480.884 899.401 481.142 900.598 481.15 901.81V1020.19ZM1494.12 892.721H1367.51C1362.13 892.721 1357.77 896.801 1357.77 901.828V1020.21C1357.77 1025.24 1362.13 1029.32 1367.51 1029.32H1494.11C1499.49 1029.32 1503.85 1025.24 1503.85 1020.21V901.828C1503.85 896.792 1499.49 892.721 1494.11 892.721H1494.12ZM1348.07 756.102H1221.47C1216.09 756.102 1211.73 760.183 1211.73 765.219V883.603C1211.73 888.63 1216.09 892.711 1221.47 892.711H1348.06C1353.44 892.711 1357.8 888.63 1357.8 883.603V765.219C1357.8 760.183 1353.44 756.111 1348.06 756.111L1348.07 756.102ZM1640.26 756.102H1513.66C1508.29 756.102 1503.93 760.183 1503.93 765.219V883.603C1503.93 888.63 1508.29 892.711 1513.67 892.711H1640.26C1645.64 892.711 1650 888.63 1650 883.603V765.219C1650 760.183 1645.64 756.111 1640.26 756.111L1640.26 756.102ZM1348.07 1029.31H1221.47C1216.09 1029.31 1211.73 1033.39 1211.73 1038.42V1156.81C1211.73 1161.84 1216.09 1165.91 1221.47 1165.91H1348.06C1353.44 1165.91 1357.8 1161.83 1357.8 1156.81V1038.42C1357.8 1033.39 1353.45 1029.31 1348.07 1029.31ZM1640.26 1029.31H1513.66C1508.29 1029.31 1503.93 1033.39 1503.93 1038.42V1156.81C1503.93 1161.84 1508.29 1165.91 1513.67 1165.91H1640.26C1645.64 1165.91 1650 1161.83 1650 1156.81V1038.42C1650 1033.39 1645.64 1029.31 1640.26 1029.31H1640.26ZM1128.78 756.102H1002.19C996.811 756.102 992.449 760.183 992.449 765.219V883.603C992.449 888.63 996.811 892.711 1002.19 892.711H1128.78C1134.16 892.711 1138.52 888.63 1138.52 883.603V765.219C1138.52 760.183 1134.16 756.111 1128.78 756.111V756.102ZM1128.78 1029.31H1002.19C996.811 1029.31 992.449 1033.39 992.449 1038.42V1156.81C992.449 1161.84 996.811 1165.91 1002.19 1165.91H1128.78C1134.16 1165.91 1138.52 1161.83 1138.52 1156.81V1038.42C1138.52 1033.39 1134.16 1029.31 1128.78 1029.31ZM992.412 901.708C992.412 899.296 991.373 896.978 989.554 895.262C987.677 893.537 985.217 892.586 982.668 892.6H846.328V765.21C846.328 762.798 845.307 760.48 843.479 758.773C841.604 757.045 839.143 756.09 836.593 756.102H709.998C707.408 756.102 704.93 757.057 703.102 758.773C702.211 759.593 701.497 760.588 701.007 761.695C700.517 762.802 700.26 763.999 700.253 765.21V1156.59C700.253 1159 701.274 1161.32 703.102 1163.03C704.93 1164.73 707.408 1165.7 709.998 1165.7H836.583C839.173 1165.7 841.651 1164.73 843.479 1163.03C845.307 1161.32 846.328 1159 846.328 1156.59V1029.2H982.658C985.248 1029.2 987.726 1028.24 989.554 1026.53C990.445 1025.71 991.158 1024.71 991.648 1023.61C992.138 1022.5 992.395 1021.3 992.403 1020.09L992.412 901.708Z" fill="white"/>
</g>
<defs>
<filter id="filter0_i_7118_7314" x="0" y="0" width="1840" height="1844" filterUnits="userSpaceOnUse" color-interpolation-filters="sRGB">
<feFlood flood-opacity="0" result="BackgroundImageFix"/>
<feBlend mode="normal" in="SourceGraphic" in2="BackgroundImageFix" result="shape"/>
<feColorMatrix in="SourceAlpha" type="matrix" values="0 0 0 0 0 0 0 0 0 0 0 0 0 0 0 0 0 0 127 0" result="hardAlpha"/>
<feOffset dy="4"/>
<feGaussianBlur stdDeviation="2"/>
<feComposite in2="hardAlpha" operator="arithmetic" k2="-1" k3="1"/>
<feColorMatrix type="matrix" values="0 0 0 0 0 0 0 0 0 0 0 0 0 0 0 0 0 0 0.25 0"/>
<feBlend mode="normal" in2="shape" result="effect1_innerShadow_7118_7314"/>
</filter>
<clipPath id="clip0_7118_7314">
<rect width="1461" height="410" fill="white" transform="translate(189 756)"/>
</clipPath>
</defs>
</svg>
