<svg width="1140" height="1140" viewBox="0 0 1140 1140" fill="none" xmlns="http://www.w3.org/2000/svg">
<path fill-rule="evenodd" clip-rule="evenodd" d="M316.667 253.333C316.667 186.145 343.357 121.709 390.866 74.1996C438.375 26.6904 502.812 0 570 0C637.188 0 701.624 26.6904 749.134 74.1996C796.643 121.709 823.333 186.145 823.333 253.333C823.333 320.522 796.643 384.958 749.134 432.467C701.624 479.976 637.188 506.667 570 506.667C502.812 506.667 438.375 479.976 390.866 432.467C343.357 384.958 316.667 320.522 316.667 253.333ZM316.667 633.333C232.681 633.333 152.136 666.696 92.7495 726.083C33.363 785.469 0 866.015 0 950C0 1000.39 20.0178 1048.72 55.6497 1084.35C91.2816 1119.98 139.609 1140 190 1140H950C1000.39 1140 1048.72 1119.98 1084.35 1084.35C1119.98 1048.72 1140 1000.39 1140 950C1140 866.015 1106.64 785.469 1047.25 726.083C987.864 666.696 907.319 633.333 823.333 633.333H316.667Z" fill="white"/>
</svg>
